<mxfile host="65bd71144e" modified="2020-11-06T17:12:26.173Z" agent="5.0 (Windows NT 10.0; Win64; x64) AppleWebKit/537.36 (KHTML, like Gecko) Code/1.51.0 Chrome/83.0.4103.122 Electron/9.3.3 Safari/537.36" etag="DgCtKW2osh87Kmu91u6K" version="13.6.5">
    <diagram name="Page-1" id="52a04d89-c75d-2922-d76d-85b35f80e030">
        <mxGraphModel dx="990" dy="1435" grid="1" gridSize="10" guides="1" tooltips="1" connect="1" arrows="1" fold="1" page="1" pageScale="1" pageWidth="1100" pageHeight="850" background="#ffffff" math="0" shadow="0">
            <root>
                <mxCell id="0"/>
                <mxCell id="1" parent="0"/>
                <mxCell id="i2azutv44Q8Xg9HqRan4-5" style="edgeStyle=orthogonalEdgeStyle;rounded=0;orthogonalLoop=1;jettySize=auto;html=1;" parent="1" source="BAadgR6sB740Vuv3uBxL-2" target="BAadgR6sB740Vuv3uBxL-3" edge="1">
                    <mxGeometry relative="1" as="geometry">
                        <mxPoint x="420" y="20" as="targetPoint"/>
                        <Array as="points">
                            <mxPoint x="420" y="80"/>
                            <mxPoint x="420" y="80"/>
                        </Array>
                    </mxGeometry>
                </mxCell>
                <mxCell id="BAadgR6sB740Vuv3uBxL-2" value="" style="swimlane;childLayout=stackLayout;horizontal=1;startSize=30;horizontalStack=0;rounded=1;fontSize=14;fontStyle=0;strokeWidth=1;resizeParent=0;resizeLast=1;shadow=0;dashed=0;align=center;" parent="1" vertex="1">
                    <mxGeometry x="320" y="160" width="160" height="120" as="geometry"/>
                </mxCell>
                <mxCell id="i2azutv44Q8Xg9HqRan4-12" value="&lt;font face=&quot;Verdana&quot;&gt;&lt;span style=&quot;font-size: 14px&quot;&gt;Statistics&lt;/span&gt;&lt;/font&gt;" style="text;html=1;strokeColor=none;fillColor=none;align=center;verticalAlign=middle;whiteSpace=wrap;rounded=0;" parent="BAadgR6sB740Vuv3uBxL-2" vertex="1">
                    <mxGeometry y="30" width="160" height="90" as="geometry"/>
                </mxCell>
                <mxCell id="i2azutv44Q8Xg9HqRan4-4" style="edgeStyle=orthogonalEdgeStyle;rounded=0;orthogonalLoop=1;jettySize=auto;html=1;" parent="1" source="BAadgR6sB740Vuv3uBxL-3" edge="1">
                    <mxGeometry relative="1" as="geometry">
                        <mxPoint x="380" y="160" as="targetPoint"/>
                        <Array as="points">
                            <mxPoint x="380" y="160"/>
                        </Array>
                    </mxGeometry>
                </mxCell>
                <mxCell id="BAadgR6sB740Vuv3uBxL-3" value="&lt;font face=&quot;Verdana&quot; style=&quot;font-size: 14px&quot;&gt;User&lt;/font&gt;" style="rounded=0;whiteSpace=wrap;html=1;" parent="1" vertex="1">
                    <mxGeometry x="320" y="-120" width="160" height="120" as="geometry"/>
                </mxCell>
                <mxCell id="i2azutv44Q8Xg9HqRan4-1" value="&lt;font face=&quot;Verdana&quot; style=&quot;font-size: 14px&quot;&gt;Thiết bị nhập&lt;/font&gt;" style="rounded=0;whiteSpace=wrap;html=1;" parent="1" vertex="1">
                    <mxGeometry y="160" width="160" height="120" as="geometry"/>
                </mxCell>
                <mxCell id="i2azutv44Q8Xg9HqRan4-2" value="&lt;font style=&quot;font-size: 14px&quot; face=&quot;Verdana&quot;&gt;Thiết bị xuất&lt;/font&gt;" style="rounded=0;whiteSpace=wrap;html=1;" parent="1" vertex="1">
                    <mxGeometry x="640" y="160" width="160" height="120" as="geometry"/>
                </mxCell>
                <mxCell id="i2azutv44Q8Xg9HqRan4-7" value="" style="strokeWidth=1;html=1;shape=mxgraph.flowchart.annotation_1;align=left;pointerEvents=1;" parent="1" vertex="1">
                    <mxGeometry x="320" y="440" width="160" height="60" as="geometry"/>
                </mxCell>
                <mxCell id="i2azutv44Q8Xg9HqRan4-9" value="" style="endArrow=none;html=1;" parent="1" edge="1">
                    <mxGeometry width="50" height="50" relative="1" as="geometry">
                        <mxPoint x="360" y="500" as="sourcePoint"/>
                        <mxPoint x="360" y="440" as="targetPoint"/>
                    </mxGeometry>
                </mxCell>
                <mxCell id="i2azutv44Q8Xg9HqRan4-10" value="&lt;span style=&quot;font-size: 14px&quot;&gt;&lt;font style=&quot;font-size: 14px&quot;&gt;&lt;font style=&quot;vertical-align: inherit&quot;&gt;&lt;font style=&quot;vertical-align: inherit&quot;&gt;D&lt;/font&gt;&lt;/font&gt;&lt;/font&gt;&lt;/span&gt;" style="text;html=1;strokeColor=none;fillColor=none;align=center;verticalAlign=middle;whiteSpace=wrap;rounded=0;fontSize=14;fontFamily=Verdana;fontStyle=0" parent="1" vertex="1">
                    <mxGeometry x="330" y="460" width="20" height="20" as="geometry"/>
                </mxCell>
                <mxCell id="i2azutv44Q8Xg9HqRan4-13" style="edgeStyle=orthogonalEdgeStyle;rounded=0;orthogonalLoop=1;jettySize=auto;html=1;" parent="1" edge="1">
                    <mxGeometry relative="1" as="geometry">
                        <mxPoint x="420" y="280" as="sourcePoint"/>
                        <mxPoint x="420" y="440" as="targetPoint"/>
                        <Array as="points">
                            <mxPoint x="420" y="440"/>
                        </Array>
                    </mxGeometry>
                </mxCell>
                <mxCell id="i2azutv44Q8Xg9HqRan4-14" style="edgeStyle=orthogonalEdgeStyle;rounded=0;orthogonalLoop=1;jettySize=auto;html=1;" parent="1" edge="1">
                    <mxGeometry relative="1" as="geometry">
                        <mxPoint x="380" y="440" as="sourcePoint"/>
                        <mxPoint x="380" y="280" as="targetPoint"/>
                        <Array as="points">
                            <mxPoint x="380" y="360"/>
                            <mxPoint x="380" y="360"/>
                        </Array>
                    </mxGeometry>
                </mxCell>
                <mxCell id="i2azutv44Q8Xg9HqRan4-15" style="edgeStyle=orthogonalEdgeStyle;rounded=0;orthogonalLoop=1;jettySize=auto;html=1;exitX=1;exitY=0.5;exitDx=0;exitDy=0;" parent="1" source="i2azutv44Q8Xg9HqRan4-1" target="i2azutv44Q8Xg9HqRan4-12" edge="1">
                    <mxGeometry relative="1" as="geometry">
                        <mxPoint x="430" y="450" as="sourcePoint"/>
                        <mxPoint x="430" y="290" as="targetPoint"/>
                        <Array as="points">
                            <mxPoint x="280" y="220"/>
                            <mxPoint x="280" y="220"/>
                        </Array>
                    </mxGeometry>
                </mxCell>
                <mxCell id="i2azutv44Q8Xg9HqRan4-16" style="edgeStyle=orthogonalEdgeStyle;rounded=0;orthogonalLoop=1;jettySize=auto;html=1;exitX=1;exitY=0.5;exitDx=0;exitDy=0;" parent="1" edge="1">
                    <mxGeometry relative="1" as="geometry">
                        <mxPoint x="480" y="219.5" as="sourcePoint"/>
                        <mxPoint x="640" y="219.5" as="targetPoint"/>
                        <Array as="points">
                            <mxPoint x="600" y="219.5"/>
                            <mxPoint x="600" y="219.5"/>
                        </Array>
                    </mxGeometry>
                </mxCell>
                <mxCell id="i2azutv44Q8Xg9HqRan4-17" value="D2" style="text;html=1;strokeColor=none;fillColor=none;align=center;verticalAlign=middle;whiteSpace=wrap;rounded=0;fontFamily=Verdana;fontSize=14;" parent="1" vertex="1">
                    <mxGeometry x="430" y="60" width="40" height="20" as="geometry"/>
                </mxCell>
                <mxCell id="i2azutv44Q8Xg9HqRan4-18" value="&lt;font style=&quot;vertical-align: inherit&quot;&gt;&lt;font style=&quot;vertical-align: inherit&quot;&gt;D1&lt;/font&gt;&lt;/font&gt;" style="text;html=1;strokeColor=none;fillColor=none;align=center;verticalAlign=middle;whiteSpace=wrap;rounded=0;fontFamily=Verdana;fontSize=14;" parent="1" vertex="1">
                    <mxGeometry x="330" y="60" width="40" height="20" as="geometry"/>
                </mxCell>
                <mxCell id="i2azutv44Q8Xg9HqRan4-19" value="D6" style="text;html=1;strokeColor=none;fillColor=none;align=center;verticalAlign=middle;whiteSpace=wrap;rounded=0;fontFamily=Verdana;fontSize=14;" parent="1" vertex="1">
                    <mxGeometry x="540" y="190" width="40" height="20" as="geometry"/>
                </mxCell>
                <mxCell id="i2azutv44Q8Xg9HqRan4-20" value="D5" style="text;html=1;strokeColor=none;fillColor=none;align=center;verticalAlign=middle;whiteSpace=wrap;rounded=0;fontFamily=Verdana;fontSize=14;" parent="1" vertex="1">
                    <mxGeometry x="220" y="190" width="40" height="20" as="geometry"/>
                </mxCell>
                <mxCell id="i2azutv44Q8Xg9HqRan4-21" value="D4" style="text;html=1;strokeColor=none;fillColor=none;align=center;verticalAlign=middle;whiteSpace=wrap;rounded=0;fontFamily=Verdana;fontSize=14;" parent="1" vertex="1">
                    <mxGeometry x="435" y="340" width="30" height="20" as="geometry"/>
                </mxCell>
                <mxCell id="i2azutv44Q8Xg9HqRan4-22" value="D3" style="text;html=1;strokeColor=none;fillColor=none;align=center;verticalAlign=middle;whiteSpace=wrap;rounded=0;fontFamily=Verdana;fontSize=14;" parent="1" vertex="1">
                    <mxGeometry x="330" y="340" width="40" height="20" as="geometry"/>
                </mxCell>
                <mxCell id="i2azutv44Q8Xg9HqRan4-24" value="&lt;div&gt;&lt;span&gt;&lt;font face=&quot;verdana&quot;&gt;Kho&lt;/font&gt;&lt;/span&gt;&lt;/div&gt;" style="text;whiteSpace=wrap;html=1;fontSize=14;fontFamily=Verdana;align=center;" parent="1" vertex="1">
                    <mxGeometry x="380" y="455" width="80" height="30" as="geometry"/>
                </mxCell>
                <mxCell id="i2azutv44Q8Xg9HqRan4-25" value="&lt;font style=&quot;vertical-align: inherit&quot;&gt;&lt;font style=&quot;vertical-align: inherit&quot;&gt;Ý nghĩa từng dòng dữ liệu:&lt;/font&gt;&lt;/font&gt;&lt;br&gt;&lt;font style=&quot;vertical-align: inherit&quot;&gt;&lt;font style=&quot;vertical-align: inherit&quot;&gt;D1: Loại thống kê người dùng cần xem&lt;br&gt;&lt;/font&gt;&lt;/font&gt;&lt;font style=&quot;vertical-align: inherit&quot;&gt;&lt;font style=&quot;vertical-align: inherit&quot;&gt;D2: Hiển thị danh sách các Statistics người dùng có thể lựa chọn&lt;/font&gt;&lt;/font&gt;&lt;br&gt;&lt;font style=&quot;vertical-align: inherit&quot;&gt;&lt;font style=&quot;vertical-align: inherit&quot;&gt;D3:&amp;nbsp;&lt;/font&gt;&lt;/font&gt;Danh sách các Statistics đang hiện hành trong CSDL&lt;br&gt;&lt;font style=&quot;vertical-align: inherit&quot;&gt;&lt;font style=&quot;vertical-align: inherit&quot;&gt;D4:&amp;nbsp;&lt;/font&gt;&lt;/font&gt;Danh sách Statistics mới sau khi các dữ liệu được cập nhật&lt;br&gt;&lt;font style=&quot;vertical-align: inherit&quot;&gt;&lt;font style=&quot;vertical-align: inherit&quot;&gt;D5: Không có &lt;/font&gt;&lt;/font&gt;&lt;br&gt;&lt;font style=&quot;vertical-align: inherit&quot;&gt;&lt;font style=&quot;vertical-align: inherit&quot;&gt;D6: Không có&lt;/font&gt;&lt;/font&gt;" style="text;html=1;strokeColor=none;fillColor=none;align=left;verticalAlign=middle;whiteSpace=wrap;rounded=0;fontFamily=Verdana;fontSize=14;" parent="1" vertex="1">
                    <mxGeometry x="840" y="-160" width="490" height="210" as="geometry"/>
                </mxCell>
                <mxCell id="i2azutv44Q8Xg9HqRan4-26" value="SƠ ĐỒ DFD MỨC TỔNG QUÁT STATISTICS" style="text;html=1;strokeColor=none;fillColor=none;align=center;verticalAlign=middle;whiteSpace=wrap;rounded=0;fontFamily=Verdana;fontSize=14;" parent="1" vertex="1">
                    <mxGeometry x="240" y="-220" width="320" height="20" as="geometry"/>
                </mxCell>
                <mxCell id="R6fzOy6agrwU3-4ZU7x7-1" value="&lt;font face=&quot;Verdana&quot; style=&quot;font-size: 14px&quot;&gt;&lt;span style=&quot;font-size: 14px&quot;&gt;Thuật toán xử lý:&lt;br&gt;&lt;/span&gt;&lt;/font&gt;&lt;span style=&quot;font-family: &amp;#34;verdana&amp;#34; ; font-size: 14px&quot;&gt;-Bước 1:&amp;nbsp;&lt;/span&gt;&lt;span style=&quot;font-family: &amp;#34;verdana&amp;#34; ; font-size: 14px&quot;&gt;Người dùng chọn Statistics cần xem&lt;/span&gt;&lt;font face=&quot;Verdana&quot; style=&quot;font-size: 14px&quot;&gt;&lt;br&gt;&lt;span style=&quot;font-size: 14px&quot;&gt;-Bước 2: Hệ thống hiển thị các loại Statistics&lt;/span&gt;&lt;br&gt;&lt;span style=&quot;font-size: 14px&quot;&gt;-Bước 3: Tải dữ liệu lên từ kho&lt;/span&gt;&lt;br&gt;&lt;span style=&quot;font-size: 14px&quot;&gt;-Bước 4: Vét cạn để sắp xếp dữ liệu được tải lên&lt;/span&gt;&lt;/font&gt;&lt;font face=&quot;Verdana&quot; style=&quot;font-size: 14px&quot;&gt;&lt;br&gt;-Bước 5: Đóng kết nối cơ sở dữ liệu từ kho&lt;br&gt;-Bước 6: Kết thúc&lt;br&gt;&lt;/font&gt;" style="text;whiteSpace=wrap;html=1;" parent="1" vertex="1">
                    <mxGeometry x="840" y="160" width="680" height="600" as="geometry"/>
                </mxCell>
            </root>
        </mxGraphModel>
    </diagram>
</mxfile>